PathFileType	4	(X/Y/Z)	jw_ngait_og1_rotated.trc
DataRate	CameraRate	NumFrames	NumMarkers	Units	OrigDataRate	OrigDataStartFrame	OrigNumFrames
120.000000	120.000000	5	56	mm	120.000000	41	327
Frame#	Times	Sternum			Neck			RShoulder			LShoulder			Xiphoid			Thoracic			RAsis			LAsis			RPsis			LPsis			Lumbar			RElbow			RWrist			RRadius			RUlna			LElbow			LWrist			LUlna			LRadius			LThighSuperior			LThighInferior			LThighLateral			LPatella			LShankSuperior			LShankInferior			LShankLateral			RThighSuperior			RThighInferior			RThighLateral			RPatella			RShankSuperior			RShankInferior			RShankLateral			RHeel			RToe			RMidfootMedial			RMidfootLateral			RHindfoot			RMidfootSuperior			RToeMedial			RToeLateral			LHeel			LToe			LMidfootMedial			LMidfootLateral			LHindfoot			LMidfootSuperior			LToeMedial			LToeLateral			LShoulderCenter			Oglobal			RShoulderCenter			Sacral			Xglobal			Yglobal			Zglobal			
		X1	Y1	Z1	X2	Y2	Z2	X3	Y3	Z3	X4	Y4	Z4	X5	Y5	Z5	X6	Y6	Z6	X7	Y7	Z7	X8	Y8	Z8	X9	Y9	Z9	X10	Y10	Z10	X11	Y11	Z11	X12	Y12	Z12	X13	Y13	Z13	X14	Y14	Z14	X15	Y15	Z15	X16	Y16	Z16	X17	Y17	Z17	X18	Y18	Z18	X19	Y19	Z19	X20	Y20	Z20	X21	Y21	Z21	X22	Y22	Z22	X23	Y23	Z23	X24	Y24	Z24	X25	Y25	Z25	X26	Y26	Z26	X27	Y27	Z27	X28	Y28	Z28	X29	Y29	Z29	X30	Y30	Z30	X31	Y31	Z31	X32	Y32	Z32	X33	Y33	Z33	X34	Y34	Z34	X35	Y35	Z35	X36	Y36	Z36	X37	Y37	Z37	X38	Y38	Z38	X39	Y39	Z39	X40	Y40	Z40	X41	Y41	Z41	X42	Y42	Z42	X43	Y43	Z43	X44	Y44	Z44	X45	Y45	Z45	X46	Y46	Z46	X47	Y47	Z47	X48	Y48	Z48	X49	Y49	Z49	X50	Y50	Z50	X51	Y51	Z51	X52	Y52	Z52	X53	Y53	Z53	X54	Y54	Z54	X55	Y55	Z55	X56	Y56	Z56	

41	1.2917	1234.3	1327.7	-121.24	1367	1444.9	-127.9	1294.8	1395.5	-302.46	1329.4	1380.2	59.14	1240	1211.9	-119.61	1461.4	1255.7	-139.61	1246.1	990.79	-268.74	1283.7	971.09	-2.2305	1473.3	965.32	-175.72	1478.5	965.1	-115.5	1472.1	1035.3	-154.05	1368.9	1075.2	-408.21	1282.1	821.4	-413.99	1263.8	827.15	-378.56	1330.4	819.81	-409.75	1391.7	1051.5	113.21	1338.6	784.38	116.84	1389.9	786.15	112.7	1322.3	807.17	81.075	1293.7	805.98	38.654	1195.9	577.86	-0.4827	1179.9	702.89	-5.0714	1128.4	518.45	-52.07	1183.1	427.35	-12.146	1173	171.62	-51.411	1139.7	303.63	-85.501	1300.5	783.86	-311.77	1270.2	540.22	-289.47	1225.8	637.38	-261.3	1265.6	440.4	-245.07	1434.6	437.01	-307.57	1609.9	286.4	-256.29	1493.6	316.75	-223.44	1739.1	303.93	-197.82	1626.4	35.997	-264.12	1653.8	99.158	-193.58	1679.1	128.9	-301.63	1728.6	192.66	-282.65	1618.7	175.27	-241.98	1658.3	56.472	-207.46	1654.5	76.254	-298.23	1253.3	44.707	-94.353	957.94	71.426	-66.429	1040.7	45.977	-133.65	1058.2	40.098	-10.396	1155.4	19.869	-28.875	1089.4	116.85	-74.308	995.57	60.586	-108.37	1008.3	51.635	-22.105	1353.3	1338.1	44.448	0	0	0	1318	1353.7	-305.45	1475.9	965.21	-145.61	200	0	0	0	0	-200	0	200	0
42	1.3	1224.8	1330	-120.59	1357.3	1447.2	-126.81	1286	1397.9	-301.69	1319.3	1382.2	60.155	1230.3	1214	-119.3	1451.9	1258.2	-138.38	1237.3	992.89	-268.46	1273.7	973.32	-1.3343	1464.4	967.87	-174.62	1469.5	967.7	-114.38	1462.6	1037.8	-152.45	1359.6	1077.2	-407	1271.7	823.63	-412.31	1253.5	829.51	-376.64	1320.3	822.05	-408.64	1379.7	1053.2	115.05	1321.9	787.18	118.93	1372.9	787.48	114.28	1312.3	806.91	86.195	1287.5	808.22	38.889	1192.6	578.65	0.98146	1173.4	704.67	-6.7351	1125.2	518.07	-50.377	1180.1	427.95	-11.189	1172.1	171.77	-50.702	1137.5	303.64	-84.267	1286.9	785.57	-309.65	1249.6	543.46	-288.21	1207.8	641.65	-260	1243.6	443.88	-241.82	1412.1	439.78	-306.71	1588.9	290.94	-255.54	1473.1	321.41	-221.7	1720.4	308.73	-200.47	1601.4	41.48	-259.63	1632.1	105.35	-191.13	1654.2	133.6	-300.3	1705.3	196.74	-283.69	1596.5	181.49	-239.12	1634.1	63.242	-204.62	1628.9	81.169	-295.17	1253.3	44.802	-94.187	957.82	71.152	-66.183	1040.7	45.463	-133.55	1058.2	39.673	-10.288	1155.5	20.06	-29.027	1089.1	116.49	-74.217	995.45	60.539	-108.17	1008.2	51.242	-21.923	1343.1	1340.3	45.547	0	0	0	1309.2	1356.2	-304.46	1466.9	967.79	-144.5	200	0	0	0	0	-200	0	200	0
43	1.3083	1215.5	1331.9	-119.87	1347.6	1449.5	-125.76	1277.3	1400.2	-301.09	1309.2	1384.3	61.045	1221.3	1215.8	-118.51	1442.6	1260.7	-137.2	1228.5	994.86	-267.9	1265.4	975.34	-1.2472	1455.5	970.35	-173.49	1460.5	970.24	-113.37	1453.9	1040.4	-152.49	1350.6	1079.1	-405.86	1261.4	825.93	-410.57	1243.7	832.1	-375.16	1310.1	824.23	-407.35	1367.5	1054.9	116.76	1305.2	790.04	120.69	1356.2	789.3	116.13	1290.3	813.42	86.222	1282.5	809.95	40.178	1188.6	579.37	1.9423	1167.1	706.18	-7.9936	1122.1	517.66	-48.825	1177.4	428.47	-10.315	1171.8	172.33	-50.019	1135.9	303.68	-83.542	1274.1	787.89	-307.74	1229.3	547.2	-286.74	1190.4	646.06	-258.39	1222	448.03	-238.66	1389.6	442.6	-305.72	1567.7	294.93	-254.73	1452.4	325.63	-219.96	1701.3	312.3	-203.59	1574.7	46.395	-254.58	1609.6	110.78	-188.8	1627.7	137.66	-299.03	1680.7	199.91	-285.11	1573.5	187.09	-236.04	1602	73.715	-204.39	1601.7	85.412	-292.21	1253.2	44.993	-94.13	957.71	70.839	-65.758	1040.5	45.629	-133.4	1058.1	39.377	-10.164	1155.3	19.682	-28.776	1088.8	116.54	-73.788	995.42	60.427	-107.88	1008.2	50.882	-21.651	1333.1	1342.5	46.722	0	0	0	1300.4	1358.6	-303.4	1458	970.3	-143.43	200	0	0	0	0	-200	0	200	0
44	1.3167	1206	1334.1	-119.53	1338	1451.8	-124.84	1268.7	1402.6	-300.52	1299	1386.3	61.92	1212	1218	-118.43	1433.4	1263.2	-136.11	1219.9	996.83	-267.58	1256.8	977.05	-0.84402	1446.7	972.93	-172.43	1451.7	972.67	-112.48	1445.1	1042.9	-151.97	1341.8	1081.1	-404.72	1251.5	828.33	-409.1	1234	834.89	-373.68	1300.1	826.61	-406.13	1355.5	1056.9	118.49	1288.6	793.12	122.81	1339.5	791.13	117.78	1273.4	816.18	87.739	1277.2	811.46	41.3	1183.6	580.12	2.9884	1161.2	707.26	-9.0858	1118.8	517.53	-47.613	1175	428.7	-9.7941	1171.3	172.71	-49.539	1134	303.81	-82.644	1262.4	791.27	-307.11	1209.4	551.31	-285.03	1173.6	650.85	-256.56	1200.4	452.5	-235.35	1367.4	445.33	-304.66	1546.2	298.4	-253.89	1431.6	329.38	-218.21	1682	314.41	-206.62	1546.9	51.079	-250.41	1585.9	115.44	-186.36	1600.2	141.02	-297.46	1655.1	201.96	-286.22	1549.8	192.23	-232.74	1572.6	79.501	-203.27	1573.2	89.185	-288.96	1253.1	45.112	-94.061	957.68	70.771	-65.534	1040.4	45.8	-133.16	1058.1	39.12	-9.9594	1155.3	19.533	-28.732	1088.7	116.54	-73.329	995.31	60.422	-107.75	1008.2	50.612	-21.565	1322.9	1344.6	47.607	0	0	0	1291.8	1361	-302.65	1449.2	972.8	-142.45	200	0	0	0	0	-200	0	200	0
45	1.325	1196.8	1336	-119.24	1328.4	1454.2	-123.77	1260.2	1405	-299.97	1288.8	1388.4	62.606	1203.2	1219.9	-118.12	1424.2	1265.6	-134.82	1211.3	999.09	-267.31	1247.9	978.98	-0.15149	1437.9	975.44	-171.41	1442.9	975.11	-111.61	1436.3	1045.4	-151.12	1333.4	1083.3	-403.73	1241.6	830.83	-407.43	1224.3	837.61	-372.03	1290.4	828.71	-404.62	1343.1	1058.7	120.31	1272.1	796.2	124.76	1323.1	793.27	119.21	1257.1	818.75	89.136	1270.6	812.78	41.947	1178.7	580.76	2.8838	1155.4	708.05	-9.9507	1115.3	517.16	-46.431	1172.9	429.13	-9.0103	1171.2	173.18	-49.061	1132.6	303.85	-82.079	1251	794.46	-306.15	1190	555.95	-283.33	1157.2	656.24	-254.62	1179.3	457.33	-232.48	1345.4	447.96	-303.51	1524.3	300.99	-253.14	1410.6	332.62	-216.44	1662.5	314.77	-209.34	1518	55.793	-247.02	1560.9	119.16	-184	1572.1	143.4	-295.76	1628.8	202.73	-286.6	1525.4	196.53	-229.83	1546.1	83.41	-200.86	1543.8	92.427	-286.02	1253.1	45.26	-93.999	957.64	70.755	-65.391	1040.6	47.246	-133.94	1057.7	38.323	-10.807	1154.4	19.025	-29.447	1088.6	116.84	-72.643	995.36	60.519	-107.64	1008.2	50.701	-21.234	1312.8	1346.6	48.483	0	0	0	1283.4	1363.4	-301.9	1440.4	975.27	-141.51	200	0	0	0	0	-200	0	200	0
